name D:\school\WTK\thesis\model\3dpredictsim\Results\MidTarsalJoint\Fal_s1_bCst_PF_Natali2010_ls150_MT_nl_signed_lin_MTP_T5_ig24_300_30.mot
datacolumns 128
datarows 4
range 0.00000000 0.03442489
endheader
time	pelvis_tilt	pelvis_list	pelvis_rotation	pelvis_tx	pelvis_ty	pelvis_tz	hip_flexion_l	hip_adduction_l	hip_rotation_l	hip_flexion_r	hip_adduction_r	hip_rotation_r	knee_angle_l	knee_angle_r	ankle_angle_l	ankle_angle_r	subtalar_angle_l	subtalar_angle_r	mtj_angle_l	mtj_angle_r	mtp_angle_l	mtp_angle_r	lumbar_extension	lumbar_bending	lumbar_rotation	arm_flex_l	arm_add_l	arm_rot_l	arm_flex_r	arm_add_r	arm_rot_r	elbow_flex_l	elbow_flex_r	pro_sup_l	pro_sup_r	glut_med1_l/activation	glut_med2_l/activation	glut_med3_l/activation	glut_min1_l/activation	glut_min2_l/activation	glut_min3_l/activation	semimem_l/activation	semiten_l/activation	bifemlh_l/activation	bifemsh_l/activation	sar_l/activation	add_long_l/activation	add_brev_l/activation	add_mag1_l/activation	add_mag2_l/activation	add_mag3_l/activation	tfl_l/activation	pect_l/activation	grac_l/activation	glut_max1_l/activation	glut_max2_l/activation	glut_max3_l/activation	iliacus_l/activation	psoas_l/activation	quad_fem_l/activation	gem_l/activation	peri_l/activation	rect_fem_l/activation	vas_med_l/activation	vas_int_l/activation	vas_lat_l/activation	med_gas_l/activation	lat_gas_l/activation	soleus_l/activation	tib_post_l/activation	flex_dig_l/activation	flex_hal_l/activation	tib_ant_l/activation	per_brev_l/activation	per_long_l/activation	per_tert_l/activation	ext_dig_l/activation	ext_hal_l/activation	ercspn_l/activation	intobl_l/activation	extobl_l/activation	glut_med1_r/activation	glut_med2_r/activation	glut_med3_r/activation	glut_min1_r/activation	glut_min2_r/activation	glut_min3_r/activation	semimem_r/activation	semiten_r/activation	bifemlh_r/activation	bifemsh_r/activation	sar_r/activation	add_long_r/activation	add_brev_r/activation	add_mag1_r/activation	add_mag2_r/activation	add_mag3_r/activation	tfl_r/activation	pect_r/activation	grac_r/activation	glut_max1_r/activation	glut_max2_r/activation	glut_max3_r/activation	iliacus_r/activation	psoas_r/activation	quad_fem_r/activation	gem_r/activation	peri_r/activation	rect_fem_r/activation	vas_med_r/activation	vas_int_r/activation	vas_lat_r/activation	med_gas_r/activation	lat_gas_r/activation	soleus_r/activation	tib_post_r/activation	flex_dig_r/activation	flex_hal_r/activation	tib_ant_r/activation	per_brev_r/activation	per_long_r/activation	per_tert_r/activation	ext_dig_r/activation	ext_hal_r/activation	ercspn_r/activation	intobl_r/activation	extobl_r/activation	
          0.00000000	         -2.93014598	         -2.11495505	          5.59949610	          0.00000000	          0.91993545	         -0.00245952	        -16.46925769	         -0.83813573	          6.48329381	         28.85235448	          3.45346740	         -2.72593632	         -9.35631632	        -10.16580193	         -3.13805392	          5.45171595	          8.02666324	         -4.28386007	          3.93129275	         -0.81102806	         14.91324500	          2.30510756	         -2.04029868	          0.40650665	         -2.05525494	          4.97063795	        -13.45949111	         16.55231439	         -5.23583798	        -13.45530822	          6.81756533	         35.11416489	         16.42387940	         86.51662706	         86.51662706	          0.25082316	          0.10068372	          0.06662947	          0.27669323	          0.17921467	          0.10070257	          0.05000402	          0.05000059	          0.05000040	          0.05186463	          0.10336052	          0.10437321	          0.10448911	          0.05000631	          0.05000962	          0.05000163	          0.29752522	          0.10328320	          0.05001612	          0.05000291	          0.05000167	          0.05000164	          0.40362621	          0.60050489	          0.05000034	          0.05000116	          0.05003566	          0.26636673	          0.05000135	          0.05000118	          0.05000115	          0.25898206	          0.35549498	          0.32507063	          0.26511606	          0.24372309	          0.32007625	          0.05000006	          0.05956248	          0.11411450	          0.05000040	          0.05000010	          0.05000040	          0.05000008	          0.05000039	          0.06749966	          0.05956245	          0.05956244	          0.05000032	          0.05956259	          0.05956255	          0.05812789	          0.15697421	          0.08941783	          0.19737936	          0.05106332	          0.05000055	          0.17049679	          0.31509513	          0.20559066	          0.24181758	          0.10975327	          0.05000045	          0.05035498	          0.14888669	          0.05000115	          0.05000108	          0.13688756	          0.05956297	          0.05839569	          0.33089833	          0.30684474	          0.13505615	          0.05000099	          0.12091062	          0.11693254	          0.10805910	          0.07195144	          0.07524710	          0.06281073	          0.05000022	          0.05957215	          0.05000171	          0.51351728	          0.24577793	          0.16405898	          0.22706820	          0.47645345	          0.24204370	          0.05550575	          0.11435946	          0.09401257	
          0.01147496	         -2.92813014	         -2.19384284	          5.84594197	          0.01748022	          0.91915923	         -0.00225667	        -16.29113410	         -1.13301159	          6.28655844	         28.15761542	          3.85368014	         -2.48965403	        -11.34094753	        -10.55412378	         -3.80546997	          4.84786685	          9.03411197	         -4.66346685	          2.96026987	         -0.94167677	         16.81179222	          2.22905746	         -1.83180292	          0.60377036	         -2.12875187	          4.64137805	        -13.47429614	         16.87156595	         -6.17536663	        -13.45110025	          6.54851662	         36.28193343	         16.12544985	         86.51662706	         86.51662706	          0.21055482	          0.08451954	          0.05593314	          0.23227168	          0.15044275	          0.08453536	          0.05000609	          0.05000161	          0.05000295	          0.05000018	          0.08676672	          0.19699390	          0.08771653	          0.06719261	          0.05956464	          0.05956381	          0.24975920	          0.08670449	          0.05000940	          0.05093699	          0.05953588	          0.05956247	          0.33882606	          0.54825350	          0.05956275	          0.05956211	          0.05000043	          0.22360294	          0.09087581	          0.14318506	          0.14270877	          0.21740374	          0.29842201	          0.27288212	          0.22255309	          0.20459494	          0.26868992	          0.05000007	          0.05000024	          0.13689365	          0.05000014	          0.05000011	          0.05000022	          0.06807316	          0.07095331	          0.06483409	          0.05000002	          0.05000008	          0.10633672	          0.05000014	          0.05000013	          0.05000012	          0.13177291	          0.07506238	          0.16569111	          0.05000096	          0.05956814	          0.14312454	          0.33113733	          0.34060021	          0.23147512	          0.11266820	          0.05000057	          0.08458374	          0.16117861	          0.05002422	          0.10274743	          0.13460865	          0.05000063	          0.05000257	          0.57248384	          0.25758238	          0.11337370	          0.05956291	          0.12134699	          0.13048712	          0.10194269	          0.06980543	          0.07095346	          0.06107605	          0.05956250	          0.05000857	          0.05955951	          0.49888753	          0.27866764	          0.21096938	          0.19061423	          0.44610682	          0.20318490	          0.05000001	          0.09599961	          0.07891931	
          0.02294993	         -2.92086486	         -2.27811768	          6.05815366	          0.03526714	          0.91835476	         -0.00207891	        -16.05655455	         -1.42692013	          6.08101827	         27.32187486	          4.12984004	         -2.22549922	        -13.40653886	        -11.00557176	         -4.61178593	          4.35845708	          9.98467607	         -5.05138851	          1.84788881	         -1.16544522	         18.75147210	          2.26381236	         -1.60163744	          0.81342161	         -2.19059496	          4.22597952	        -13.48661070	         17.10152813	         -7.13248994	        -13.45708544	          6.34658945	         37.44621646	         15.85446246	         86.51662706	         86.51662706	          0.33802698	          0.07095056	          0.05000029	          0.30937386	          0.12629019	          0.07096377	          0.05000640	          0.05000039	          0.05000027	          0.05000220	          0.07283725	          0.16536760	          0.07363456	          0.05640542	          0.05000274	          0.05000145	          0.23594266	          0.07279595	          0.05000600	          0.05000200	          0.05000103	          0.05000096	          0.28442928	          0.50667168	          0.05000044	          0.05000143	          0.05002382	          0.18770465	          0.07628625	          0.12019752	          0.11979768	          0.18250062	          0.25051181	          0.22907221	          0.18682331	          0.17174840	          0.22555320	          0.08070283	          0.13960304	          0.14554050	          0.05019020	          0.09729723	          0.05474057	          0.06436018	          0.05956210	          0.05442531	          0.24946859	          0.26402715	          0.28569103	          0.46172577	          0.27927486	          0.19940732	          0.11310004	          0.06301750	          0.13909040	          0.05956381	          0.05000549	          0.12014664	          0.27797489	          0.28591867	          0.19431337	          0.11713147	          0.05000093	          0.07100493	          0.13530252	          0.13393700	          0.11761622	          0.11299813	          0.05001218	          0.05000085	          0.48057438	          0.21622897	          0.23203459	          0.05000047	          0.10186563	          0.10953837	          0.08557655	          0.05859859	          0.05956234	          0.05349423	          0.05000027	          0.05000070	          0.05000097	          0.57056593	          0.36077085	          0.17710011	          0.36659118	          0.51802044	          0.17939617	          0.06555378	          0.11261041	          0.06624922	
          0.03442489	         -2.91035758	         -2.35290972	          6.23239138	          0.05312859	          0.91754246	         -0.00187037	        -15.72813488	         -1.70388504	          5.89605041	         26.43636895	          4.36907188	         -1.96703001	        -15.60632551	        -11.38508711	         -5.48848376	          3.83681542	         10.88825147	         -5.44334184	          0.62736304	         -1.08136911	         20.52341247	          2.31499840	         -1.37461897	          1.01738888	         -2.24195291	          3.76621362	        -13.50721216	         17.26859646	         -8.05720593	        -13.46369199	          6.21587018	         38.58455031	         15.58367085	         86.51662706	         86.51662706	          0.28375861	          0.05956005	          0.05000103	          0.25970571	          0.10601505	          0.05957098	          0.05000239	          0.05000031	          0.05000042	          0.05000013	          0.06114380	          0.18806463	          0.12080813	          0.10305361	          0.06194146	          0.14435035	          0.19806346	          0.06111073	          0.05000108	          0.05006078	          0.05006491	          0.05939111	          0.23876557	          0.42532862	          0.05000893	          0.05000966	          0.05000037	          0.15756960	          0.11565430	          0.11172797	          0.10068939	          0.15320103	          0.21029336	          0.19229577	          0.15682977	          0.14417517	          0.18934182	          0.18347259	          0.11719209	          0.12217497	          0.36913866	          0.19646266	          0.13995414	          0.08238440	          0.05000007	          0.05000007	          0.36529055	          0.36615348	          0.39126540	          0.38759814	          0.23443931	          0.26258880	          0.09664524	          0.08921110	          0.11676039	          0.05000235	          0.05000117	          0.10085773	          0.23334745	          0.24001625	          0.16315623	          0.15305281	          0.05000061	          0.05960630	          0.11358096	          0.23490751	          0.18242711	          0.15311360	          0.05000013	          0.05000016	          0.40342056	          0.18151460	          0.19478391	          0.05000015	          0.14404216	          0.15292890	          0.11644178	          0.05000006	          0.05000013	          0.05000002	          0.05000004	          0.05000019	          0.05000021	          0.63395593	          0.31038310	          0.16142049	          0.61351756	          0.56502044	          0.31833703	          0.08449510	          0.09453136	          0.05561326	
